<svg xmlns="http://www.w3.org/2000/svg" viewBox="0 0 588.6545 112.6325"><defs><style>.a{fill:#1d3b2d;}.b{fill:#a3e108;}</style></defs><rect class="a" width="112.6325" height="112.6325" rx="56.3162"/><path class="a" d="M372.1035,548.6108a6.1823,6.1823,0,0,1-4.4028-1.73,5.6329,5.6329,0,0,1,0-8.3111,6.4421,6.4421,0,0,1,8.7886,0,5.598,5.598,0,0,1,0,8.3111A6.199,6.199,0,0,1,372.1035,548.6108Zm-4.98,58.4707V556.4272h9.8609v50.6543Z" transform="translate(-229.4441 -517.5362)"/><path class="a" d="M389.1748,607.0815V539.542h9.86v25.0962h.5937a31.6091,31.6091,0,0,1,2.49-3.66,13.94,13.94,0,0,1,4.4853-3.6445,15.8419,15.8419,0,0,1,7.5684-1.5664,19.7039,19.7039,0,0,1,10.9321,3.1006,21.0655,21.0655,0,0,1,7.5684,8.9365,32.544,32.544,0,0,1,2.77,14.0488,33.1312,33.1312,0,0,1-2.7373,14.0655,21.0788,21.0788,0,0,1-7.5191,9.0195,19.4685,19.4685,0,0,1-10.916,3.1328,15.9163,15.9163,0,0,1-7.5186-1.55,14.482,14.482,0,0,1-4.5678-3.6279,26.7436,26.7436,0,0,1-2.5557-3.6934h-.8242v7.8818Zm9.6626-25.3271q0,7.98,3.43,12.9434a11.1924,11.1924,0,0,0,9.7944,4.9638,11.5709,11.5709,0,0,0,7.4038-2.3584,14.3618,14.3618,0,0,0,4.5015-6.414,25.9446,25.9446,0,0,0,1.5171-9.1348,25.4059,25.4059,0,0,0-1.5-9.0195,14.0082,14.0082,0,0,0-4.4688-6.2823,11.775,11.775,0,0,0-7.4531-2.3086q-6.4637,0-9.8437,4.8311T398.8374,581.7544Z" transform="translate(-229.4441 -517.5362)"/><path class="a" d="M476.72,586.0747V556.4272h9.8936v50.6543H476.918v-8.7724H476.39a15.7435,15.7435,0,0,1-5.5893,6.7441,16.25,16.25,0,0,1-9.5474,2.6875,15.8948,15.8948,0,0,1-11.9546-4.831q-4.667-4.8311-4.6665-14.2627v-32.22h9.8609V587.46a11.5805,11.5805,0,0,0,2.8686,8.2441,9.7393,9.7393,0,0,0,7.4531,3.0674,12.2,12.2,0,0,0,5.524-1.3848,11.7175,11.7175,0,0,0,4.584-4.205A12.6274,12.6274,0,0,0,476.72,586.0747Z" transform="translate(-229.4441 -517.5362)"/><path class="a" d="M497.98,607.0815V556.4272h9.5307v8.0469h.5279a12.3187,12.3187,0,0,1,4.8808-6.4472,13.9334,13.9334,0,0,1,7.9805-2.3584,12.951,12.951,0,0,1,3.7266.4951,10.3743,10.3743,0,0,1,2.9018,1.3515l-3.1655,8.2452a8.6771,8.6771,0,0,0-2.0117-.7256,11.2986,11.2986,0,0,0-2.5723-.2647,11.9485,11.9485,0,0,0-8.5249,3.2158,10.728,10.728,0,0,0-3.4131,8.1621v30.9336Z" transform="translate(-229.4441 -517.5362)"/><path class="a" d="M547.4043,608.2026a20.5761,20.5761,0,0,1-8.689-1.78,14.4173,14.4173,0,0,1-6.15-5.2276,14.9532,14.9532,0,0,1-2.2753-8.4258,13.5952,13.5952,0,0,1,1.665-7.0908,12.3319,12.3319,0,0,1,4.4521-4.3857,22.6364,22.6364,0,0,1,6.25-2.4238,64.7419,64.7419,0,0,1,7.0566-1.2364q4.5513-.5272,7.3711-.874a10.8375,10.8375,0,0,0,4.1221-1.1377,2.78,2.78,0,0,0,1.3017-2.5723v-.2314a8.9472,8.9472,0,0,0-2.4228-6.6943q-2.4243-2.3745-7.2061-2.3741-4.98,0-7.832,2.1758a11.7288,11.7288,0,0,0-3.9414,4.8809l-9.2661-2.11a17.101,17.101,0,0,1,8.2607-9.9267,27.0675,27.0675,0,0,1,12.647-3.001,31.5894,31.5894,0,0,1,6.4306.709,19.4694,19.4694,0,0,1,6.4141,2.6054,14.2643,14.2643,0,0,1,4.9141,5.3594,18.6826,18.6826,0,0,1,1.8964,9.0029v33.6377h-9.6308v-6.9257h-.3945a15.5889,15.5889,0,0,1-5.0459,5.4414Q553.7026,608.2032,547.4043,608.2026Zm2.1436-7.915a14.2424,14.2424,0,0,0,7.0244-1.6152,11.4534,11.4534,0,0,0,4.4355-4.2383,10.9506,10.9506,0,0,0,1.5332-5.6231v-6.5293a6.7013,6.7013,0,0,1-3.0332,1.2207q-2.3423.5274-4.9473.89t-4.2207.5937a20.4405,20.4405,0,0,0-7.3378,2.2588,5.9582,5.9582,0,0,0-3.05,5.6563,6.2717,6.2717,0,0,0,2.7046,5.5244A11.8792,11.8792,0,0,0,549.5479,600.2876Z" transform="translate(-229.4441 -517.5362)"/><path class="a" d="M607.9414,556.4272v7.9141h-10.916v42.74h-9.8936v-42.74h-7.8154v-7.9141h7.8154v-5.87a13.9665,13.9665,0,0,1,2.0948-7.8984,12.997,12.997,0,0,1,5.5234-4.7163,17.6491,17.6491,0,0,1,7.42-1.5664,23.4827,23.4827,0,0,1,5.1123.4785,24.2775,24.2775,0,0,1,3.1328.8735l-2.3086,7.9815q-.6929-.2315-1.7812-.4951a11.36,11.36,0,0,0-2.6377-.2637q-3.5947,0-5.1279,1.7812a7.664,7.664,0,0,0-1.5342,5.1446v4.5507Z" transform="translate(-229.4441 -517.5362)"/><path class="a" d="M628.8721,608.2026a20.5811,20.5811,0,0,1-8.6905-1.78,14.4252,14.4252,0,0,1-6.15-5.2276,14.9556,14.9556,0,0,1-2.2754-8.4258,13.5951,13.5951,0,0,1,1.666-7.0908,12.3241,12.3241,0,0,1,4.4521-4.3857,22.6324,22.6324,0,0,1,6.249-2.4238,64.7617,64.7617,0,0,1,7.0577-1.2364q4.55-.5272,7.37-.874a10.8318,10.8318,0,0,0,4.1221-1.1377,2.7807,2.7807,0,0,0,1.3027-2.5723v-.2314a8.9437,8.9437,0,0,0-2.4238-6.6943q-2.4244-2.3745-7.2061-2.3741-4.979,0-7.832,2.1758a11.734,11.734,0,0,0-3.94,4.8809l-9.2675-2.11a17.1042,17.1042,0,0,1,8.2617-9.9267,27.067,27.067,0,0,1,12.6465-3.001,31.5894,31.5894,0,0,1,6.4306.709,19.4745,19.4745,0,0,1,6.4151,2.6054,14.262,14.262,0,0,1,4.9131,5.3594,18.671,18.671,0,0,1,1.8964,9.0029v33.6377h-9.63v-6.9257h-.3955a15.5793,15.5793,0,0,1-5.0459,5.4414Q635.1694,608.2032,628.8721,608.2026Zm2.1435-7.915a14.2446,14.2446,0,0,0,7.0244-1.6152,11.4606,11.4606,0,0,0,4.4356-4.2383,10.96,10.96,0,0,0,1.5332-5.6231v-6.5293a6.712,6.712,0,0,1-3.0342,1.2207q-2.3423.5274-4.9463.89-2.6059.3633-4.2217.5937a20.4462,20.4462,0,0,0-7.3378,2.2588,5.9578,5.9578,0,0,0-3.05,5.6563,6.2727,6.2727,0,0,0,2.7041,5.5244A11.883,11.883,0,0,0,631.0156,600.2876Z" transform="translate(-229.4441 -517.5362)"/><path class="a" d="M665.1367,607.0815V556.4272h9.53v8.0469h.5273a12.3013,12.3013,0,0,1,4.8975-6.4472,13.9578,13.9578,0,0,1,7.9639-2.3584q.9565,0,2.21.0664t1.9785.164v9.4326a19.1783,19.1783,0,0,0-2.0937-.38,21.6019,21.6019,0,0,0-3.0508-.2139,12.18,12.18,0,0,0-8.6728,3.2148,10.74,10.74,0,0,0-3.43,8.1953v30.9336Z" transform="translate(-229.4441 -517.5362)"/><path class="a" d="M698.9609,607.0815V556.4272h9.4649v8.2442h.626a13.1775,13.1775,0,0,1,5.1777-6.5459,15.3439,15.3439,0,0,1,8.6074-2.3584,14.6706,14.6706,0,0,1,8.5244,2.375,13.97,13.97,0,0,1,5.0957,6.5293h.5274a14.5754,14.5754,0,0,1,5.7871-6.48,17.6272,17.6272,0,0,1,9.416-2.4238,15.3069,15.3069,0,0,1,11.2617,4.3369q4.37,4.3374,4.3692,13.01v33.9677h-9.86V574.0376q0-5.1446-2.7861-7.4531a10.1792,10.1792,0,0,0-6.711-2.3086,9.5538,9.5538,0,0,0-7.4863,2.9678,10.859,10.859,0,0,0-2.6709,7.5517v32.2861h-9.8281V573.4106a8.8373,8.8373,0,0,0-2.5723-6.6289,9.19,9.19,0,0,0-6.6943-2.5058,9.7809,9.7809,0,0,0-7.2881,3.2314,11.5586,11.5586,0,0,0-3.1,8.3438v31.23Z" transform="translate(-229.4441 -517.5362)"/><path class="a" d="M817.1094,568.7935l-8.9365,1.583A11.2129,11.2129,0,0,0,804.99,565.71q-2.3247-2.1268-6.9414-2.1269a12.44,12.44,0,0,0-7.0078,1.8633,5.4885,5.4885,0,0,0-2.7871,4.7978,4.9206,4.9206,0,0,0,1.8633,4.1065,15.5787,15.5787,0,0,0,6.0849,2.5224l8.0459,1.8467q13.8516,3.1992,13.8506,13.7188a13.2405,13.2405,0,0,1-2.6211,8.1132,17.42,17.42,0,0,1-7.288,5.54,27.09,27.09,0,0,1-10.8008,2.0117q-8.5416,0-13.8838-3.6445a15.4311,15.4311,0,0,1-6.5957-10.3711l9.5312-1.4512q1.78,7.519,10.8828,7.5186a13.2942,13.2942,0,0,0,7.75-2.0274,5.9341,5.9341,0,0,0,2.9014-4.9638q0-4.8472-7.1562-6.4307l-8.5743-1.88q-7.1235-1.5836-10.4873-5.1445a12.5046,12.5046,0,0,1-3.3632-8.9366,12.85,12.85,0,0,1,2.5058-7.8662,16.3552,16.3552,0,0,1,6.9258-5.26,25.6651,25.6651,0,0,1,10.124-1.88q8.2119,0,12.9278,3.5615A16.7158,16.7158,0,0,1,817.1094,568.7935Z" transform="translate(-229.4441 -517.5362)"/><path class="b" d="M285.4655,579.3468l-15.6173-10.9719v14.2865a9.23,9.23,0,0,0,3.924,7.5523l11.7147,8.23Z" transform="translate(-229.4441 -517.5362)"/><path class="b" d="M285.4667,617.5378l12.2818-8.6286a9.23,9.23,0,0,0,3.924-7.5523V587.07l-16.1843,11.37Z" transform="translate(-229.4441 -517.5362)"/><path class="b" d="M285.4885,560.2491l-.0215-19.0969L269.85,530.18v14.2865a9.23,9.23,0,0,0,3.924,7.5523l11.7146,8.23h0l-.0215,19.097,12.2818-8.6285a9.23,9.23,0,0,0,3.924-7.5523V548.8791Z" transform="translate(-229.4441 -517.5362)"/></svg>